<?xml version="1.0" encoding="utf-8"?>
<!-- Generator: Adobe Illustrator 18.1.1, SVG Export Plug-In . SVG Version: 6.00 Build 0)  -->
<svg version="1.1" id="Layer_1" xmlns="http://www.w3.org/2000/svg" xmlns:xlink="http://www.w3.org/1999/xlink" x="0px" y="0px"
	 viewBox="0 0 78.1 51.7" enable-background="new 0 0 78.1 51.7" xml:space="preserve">
<g>
	<path fill="none" d="M34.8,41.5c-0.9,0-1.6,0.7-1.6,1.6c0,0.9,0.7,1.6,1.6,1.6c0.9,0,1.6-0.7,1.6-1.6
		C36.3,42.2,35.7,41.5,34.8,41.5z"/>
	<path fill="none" d="M46.4,41.5c-0.9,0-1.6,0.7-1.6,1.6c0,0.9,0.7,1.6,1.6,1.6c0.9,0,1.6-0.7,1.6-1.6C48,42.2,47.3,41.5,46.4,41.5z
		"/>
	<path fill="none" d="M73.6,41.5c-0.9,0-1.6,0.7-1.6,1.6c0,0.9,0.7,1.6,1.6,1.6c0.9,0,1.6-0.7,1.6-1.6
		C75.2,42.2,74.5,41.5,73.6,41.5z"/>
	<path fill="#FFFFFF" d="M31.2,32.2l5.1-5.1c0.1-0.1,0.1-0.2,0.1-0.3c0-0.1,0-0.2-0.1-0.3L19.7,9.8c-0.1-0.1-0.5-0.1-0.6,0L13.9,15
		c-0.1,0.1-0.1,0.4,0,0.6l1.7,1.7c0.2,0.2,0.4,0.1,0.6,0l2.8-2.8l12.7,12.7l-2.8,2.8c-0.1,0.1-0.1,0.2-0.1,0.3c0,0.1,0,0.2,0.1,0.3
		l1.7,1.7C30.8,32.3,31,32.3,31.2,32.2z"/>
	<path fill="#FFFFFF" d="M9.8,24.4c0,0-0.1-0.1-0.2-0.1c-0.1,0-0.1,0-0.2,0.1l-9.4,9.4C0,33.8,0,33.9,0,34c0,0.1,0,0.1,0.1,0.2
		L2,36.1c0.1,0.1,0.3,0.1,0.4,0l9.4-9.4c0.1-0.1,0.1-0.3,0-0.4L9.8,24.4z"/>
	<path fill="#FFFFFF" d="M9.8,38.7l9.4-9.4c0.1-0.1,0.1-0.3,0-0.4L17.2,27c0,0-0.1-0.1-0.2-0.1c-0.1,0-0.1,0-0.2,0.1l-9.4,9.4
		c0,0-0.1,0.1-0.1,0.2c0,0.1,0,0.1,0.1,0.2l1.9,1.9C9.5,38.8,9.7,38.8,9.8,38.7z"/>
	<path fill="#FFFFFF" d="M18.6,35.7c0,0-0.1-0.1-0.2-0.1c-0.1,0-0.1,0-0.2,0.1l-9.4,9.4c0,0-0.1,0.1-0.1,0.2s0,0.1,0.1,0.2l1.9,1.9
		c0.1,0.1,0.3,0.1,0.4,0l9.4-9.4c0.1-0.1,0.1-0.3,0-0.4L18.6,35.7z"/>
	<path fill="#FFFFFF" d="M26.1,10.8c0.1,0.1,0.2,0.1,0.3,0.1c0.1,0,0.1,0,0.1,0l13.6-5.2L40.5,6l-5.2,13.6c0,0.1-0.1,0.3,0.1,0.4
		l2.2,2.2c0.2,0.2,0.6,0.2,0.7-0.1l7.9-21.3c0.1-0.2,0-0.3-0.1-0.4l-0.2-0.2C45.7,0,45.6,0,45.4,0L24.1,7.9
		c-0.1,0.1-0.2,0.2-0.3,0.3c0,0.1,0,0.3,0.1,0.4L26.1,10.8z"/>
	<path fill="#FFFFFF" d="M30.2,14.2c0,0.9,0.6,1.9,1.8,1.9c1.2,0,1.8-1,1.8-1.9c0-0.9-0.6-1.9-1.8-1.9
		C30.7,12.3,30.2,13.3,30.2,14.2z"/>
	<path fill="#FFFFFF" d="M39,38.9h-1c-0.2,0-0.3,0.2-0.3,0.3l-0.4,1L37.1,40c0,0-1-1.3-2.8-1.3c-2.3,0-4.1,1.9-4.1,4.4
		c0,2.5,1.8,4.4,4.2,4.4c1.8,0,2.8-1.3,2.8-1.3l0.2-0.2l0.4,1c0,0.1,0.1,0.3,0.3,0.3h1c0.1,0,0.3-0.1,0.3-0.3v-7.9
		C39.2,39.1,39.1,38.9,39,38.9z M34.8,45.1c-1.1,0-1.9-0.8-1.9-1.9c0-1.1,0.8-1.9,1.9-1.9c1.1,0,1.9,0.8,1.9,1.9
		C36.6,44.2,35.8,45.1,34.8,45.1z"/>
	<path fill="#FFFFFF" d="M46.8,38.7C45,38.7,44,40,44,40l-0.2,0.2l-0.4-1c0-0.1-0.1-0.3-0.3-0.3h-1c-0.1,0-0.3,0.1-0.3,0.3v12.3
		c0,0.1,0.1,0.3,0.3,0.3h2.4c0.1,0,0.3-0.1,0.3-0.3V47l0.2,0.1c0.2,0.1,1,0.4,1.7,0.4c1.9,0,4.2-1.2,4.2-4.4
		C50.9,40.7,49.1,38.7,46.8,38.7z M46.4,45.1c-1.1,0-1.9-0.8-1.9-1.9c0-1.1,0.8-1.9,1.9-1.9c1.1,0,1.9,0.9,1.9,1.9
		C48.3,44.2,47.4,45.1,46.4,45.1z"/>
	<path fill="#FFFFFF" d="M54.4,32.9c-0.9,0-1.6,0.7-1.6,1.6c0,0.9,0.7,1.6,1.6,1.6c0.9,0,1.6-0.7,1.6-1.6
		C56,33.6,55.3,32.9,54.4,32.9z"/>
	<path fill="#FFFFFF" d="M55.6,38.9h-2.4c-0.1,0-0.3,0.1-0.3,0.3v7.9c0,0.1,0.1,0.3,0.3,0.3h2.4c0.1,0,0.3-0.1,0.3-0.3v-7.9
		C55.9,39,55.7,38.9,55.6,38.9z"/>
	<path fill="#FFFFFF" d="M61.2,32.4h-2.4c-0.1,0-0.3,0.1-0.3,0.3v14.4c0,0.1,0.1,0.3,0.3,0.3h2.4c0.1,0,0.3-0.1,0.3-0.3V32.7
		C61.4,32.5,61.3,32.4,61.2,32.4z"/>
	<path fill="#FFFFFF" d="M65.5,32.9c-0.9,0-1.6,0.7-1.6,1.6c0,0.9,0.7,1.6,1.6,1.6c0.9,0,1.6-0.7,1.6-1.6
		C67.1,33.6,66.4,32.9,65.5,32.9z"/>
	<path fill="#FFFFFF" d="M66.8,38.9h-2.4c-0.1,0-0.3,0.1-0.3,0.3v7.9c0,0.1,0.1,0.3,0.3,0.3h2.4c0.1,0,0.3-0.1,0.3-0.3v-7.9
		C67,39,66.9,38.9,66.8,38.9z"/>
	<path fill="#FFFFFF" d="M77.8,38.9h-1c-0.2,0-0.3,0.2-0.3,0.3l-0.4,1L76,40c0,0-1-1.3-2.8-1.3c-2.3,0-4.1,1.9-4.1,4.4
		c0,2.5,1.8,4.4,4.2,4.4c1.8,0,2.8-1.3,2.8-1.3l0.2-0.2l0.4,1c0,0.1,0.1,0.3,0.3,0.3h1c0.1,0,0.3-0.1,0.3-0.3v-7.9
		C78.1,39.1,78,38.9,77.8,38.9z M73.6,45.1c-1.1,0-1.9-0.8-1.9-1.9c0-1.1,0.8-1.9,1.9-1.9c1.1,0,1.9,0.8,1.9,1.9
		C75.5,44.2,74.7,45.1,73.6,45.1z"/>
</g>
</svg>
